<?xml version="1.0" encoding="UTF-8" standalone="no"?>
<svg width="289px" height="289px" viewBox="0 0 289 289" version="1.1" xmlns="http://www.w3.org/2000/svg" xmlns:xlink="http://www.w3.org/1999/xlink" xmlns:sketch="http://www.bohemiancoding.com/sketch/ns">
    <!-- Generator: Sketch 3.2.2 (9983) - http://www.bohemiancoding.com/sketch -->
    <title>Icon</title>
    <desc>Created with Sketch.</desc>
    <defs>
        <radialGradient cx="50%" cy="50%" fx="50%" fy="50%" r="50%" id="radialGradient-1">
            <stop stop-color="#C2C2C2" stop-opacity="0.5" offset="0%"></stop>
            <stop stop-color="#919191" stop-opacity="0.5" offset="100%"></stop>
        </radialGradient>
        <filter x="-50%" y="-50%" width="200%" height="200%" filterUnits="objectBoundingBox" id="filter-2">
            <feOffset dx="0" dy="2" in="SourceAlpha" result="shadowOffsetOuter1"></feOffset>
            <feGaussianBlur stdDeviation="4" in="shadowOffsetOuter1" result="shadowBlurOuter1"></feGaussianBlur>
            <feColorMatrix values="0 0 0 0 0   0 0 0 0 0   0 0 0 0 0  0 0 0 0.35 0" in="shadowBlurOuter1" type="matrix" result="shadowMatrixOuter1"></feColorMatrix>
            <feMerge>
                <feMergeNode in="shadowMatrixOuter1"></feMergeNode>
                <feMergeNode in="SourceGraphic"></feMergeNode>
            </feMerge>
        </filter>
        <circle id="path-3" cx="136.5" cy="136.5" r="136.5"></circle>
    </defs>
    <g id="Homepage" stroke="none" stroke-width="1" fill="none" fill-rule="evenodd" sketch:type="MSPage">
        <g id="Desktop" sketch:type="MSArtboardGroup" transform="translate(-504.000000, -714.000000)">
            <g id="Services" sketch:type="MSLayerGroup" transform="translate(0.000000, 620.000000)">
                <g id="Ecommerce" transform="translate(487.000000, 100.000000)">
                    <g id="Icon" transform="translate(25.000000, 0.000000)">
                        <g id="Oval-1" filter="url(#filter-2)">
                            <use fill="#1ABC9C" sketch:type="MSShapeGroup" xlink:href="#path-3"></use>
                            <use fill-opacity="0.1" fill="url(#radialGradient-1)" xlink:href="#path-3"></use>
                        </g>
                        <g id="fa-dollar-(alias)" transform="translate(98.000000, 65.000000)" fill="#FFFFFF" sketch:type="MSShapeGroup">
                            <path d="M1.39636364,111.780136 C1.68272727,112.064455 2.10909091,112.487773 2.82818182,113.195409 C3.54090909,113.764045 4.68,114.756 6.53818182,116.177591 C8.39636364,117.453864 10.2545455,118.730136 12.3927273,119.861091 C14.5372727,121.137364 17.2545455,122.274636 20.5381818,123.405591 C23.8218182,124.542864 27.1054545,125.395818 30.6754545,125.819136 L30.6754545,139.719136 C30.6754545,140.426773 30.9618182,140.995409 31.3945455,141.557727 C31.9609091,141.987364 32.5336364,142.271682 33.2463636,142.271682 L43.9627273,142.271682 C44.6754545,142.271682 45.3881818,141.987364 45.8209091,141.557727 C46.2472727,141.134409 46.5336364,140.426773 46.5336364,139.719136 L46.5336364,125.819136 C54.9590909,124.542864 61.8190909,120.853045 67.1009091,115.040318 C72.3890909,109.227591 75.1,102.277591 75.1,94.1966364 C75.1,91.6440909 74.8136364,89.0915455 74.1009091,86.817 C73.3881818,84.4097727 72.5290909,82.4258636 71.53,80.7199545 C70.5309091,79.0203636 69.0990909,77.3207727 67.3872727,75.7601818 C65.5290909,74.0542727 63.8172727,72.778 62.3854545,71.7860455 C60.96,70.7940909 58.9618182,69.6631364 56.3909091,68.3868636 C53.82,67.1105909 51.8154545,66.2576364 50.2436364,65.689 C48.8181818,64.9813636 46.6736364,64.1284091 43.8163636,63.1364545 C41.3918182,62.1445 39.5336364,61.4368636 38.2481818,61.0072273 C37.1090909,60.4449091 35.3909091,59.7309545 33.3927273,58.8843182 C31.3945455,57.8923636 29.9627273,57.0394091 28.9636364,56.3317727 C27.9645455,55.6178182 26.9654545,54.7711818 25.82,53.7792273 C24.6809091,52.7809545 23.9681818,51.65 23.5354545,50.5127273 C23.1090909,49.3817727 22.8227273,48.1055 22.8227273,46.6839091 C22.8227273,43.1394091 24.3945455,40.1635455 27.5381818,37.8953182 C30.8218182,35.6270909 34.8181818,34.4898182 39.96,34.4898182 C42.1045455,34.4898182 44.3890909,34.7741364 46.82,35.3427727 C49.1045455,36.0504091 51.1027273,36.7580455 52.6745455,37.4656818 C54.3863636,38.1796364 55.9581818,39.0262727 57.39,40.0182273 C58.8154545,40.8711818 59.8145455,41.5788182 60.5336364,42.1474545 C61.1,42.5707727 61.5327273,42.8550909 61.6727273,43.0004091 C62.3854545,43.5690455 63.1045455,43.7080455 63.8172727,43.5690455 C64.53,43.5690455 65.2427273,43.1394091 65.6754545,42.2927727 L72.1027273,30.8 C72.6754545,29.6690455 72.5290909,28.6770909 71.67,27.8241364 C71.3836364,27.4008182 70.9572727,27.1165 70.5309091,26.6868636 C69.9581818,26.2635455 68.9590909,25.4105909 67.3872727,24.4186364 C65.8154545,23.2876818 64.1036364,22.2957273 62.2454545,21.4427727 C60.5336364,20.4508182 58.2427273,19.5978636 55.3918182,18.7512273 C52.5345455,17.8982727 49.5309091,17.1906364 46.5336364,16.9063182 L46.5336364,3.00631818 C46.5336364,2.29868182 46.2472727,1.59104545 45.8209091,1.16140909 C45.3881818,0.738090909 44.6754545,0.453772727 43.9627273,0.453772727 L33.2463636,0.453772727 C32.5336364,0.453772727 31.9609091,0.738090909 31.3945455,1.16140909 C30.9618182,1.73004545 30.6754545,2.29868182 30.6754545,3.00631818 L30.6754545,17.1906364 C22.3963636,18.7512273 15.5363636,22.2957273 10.3945455,27.8241364 C5.11272727,33.3525455 2.54181818,39.7339091 2.54181818,46.9682273 C2.54181818,49.0974545 2.82818182,51.2266818 3.25454545,53.2105909 C3.68090909,55.0555 4.25363636,56.8940909 4.82636364,58.4546818 C5.53909091,60.0152727 6.53818182,61.5758636 7.68363636,62.9974545 C8.96909091,64.5517273 10.1081818,65.8343182 11.2536364,66.8262727 C12.2527273,67.9572273 13.6781818,69.0945 15.3963636,70.2254545 C17.2545455,71.3627273 18.68,72.3546818 19.9654545,73.0623182 C21.2509091,73.7699545 22.8227273,74.6229091 24.9672727,75.4758636 C26.9654545,76.4678182 28.6772727,77.1754545 29.8227273,77.5987727 C31.1081818,78.0284091 32.68,78.7360455 34.8181818,79.589 C37.6754545,80.7199545 39.82,81.5729091 41.1054545,82.1415455 C42.5309091,82.7101818 44.2490909,83.5568182 46.3872727,84.6940909 C48.5318182,85.8250455 50.1036364,86.817 51.1027273,87.6699545 C52.1018182,88.5229091 52.9609091,89.6538636 53.82,90.9301364 C54.5327273,92.3517273 54.9590909,93.767 54.9590909,95.1885909 C54.9590909,99.3017273 53.3872727,102.561909 50.1036364,104.830136 C46.82,107.098364 42.9636364,108.235636 38.6745455,108.235636 C36.6763636,108.235636 34.6781818,108.090318 32.82,107.667 C25.82,106.251727 19.3927273,102.985227 13.3981818,97.7411364 L13.2518182,97.5958182 C12.8254545,97.0335 12.1127273,96.7491818 11.3936364,96.8881818 C10.5409091,96.8881818 9.82181818,97.3115 9.54181818,97.7411364 L1.25636364,108.519955 C0.537272727,109.511909 0.537272727,110.642864 1.39636364,111.780136" id="Fill-226"></path>
                        </g>
                    </g>
                </g>
            </g>
        </g>
    </g>
</svg>