<?xml version="1.0" encoding="UTF-8" standalone="no"?>
<svg width="103px" height="87px" viewBox="0 0 103 87" version="1.1" xmlns="http://www.w3.org/2000/svg" xmlns:xlink="http://www.w3.org/1999/xlink" xmlns:sketch="http://www.bohemiancoding.com/sketch/ns">
    <!-- Generator: Sketch 3.2.2 (9983) - http://www.bohemiancoding.com/sketch -->
    <title>fa-quote-left</title>
    <desc>Created with Sketch.</desc>
    <defs></defs>
    <g id="Homepage" stroke="none" stroke-width="1" fill="none" fill-rule="evenodd" sketch:type="MSPage">
        <g id="Desktop" sketch:type="MSArtboardGroup" transform="translate(-98.000000, -1429.000000)" fill-opacity="0.6" fill="#34495E">
            <g id="Testimonial" sketch:type="MSLayerGroup" transform="translate(0.000000, 1182.000000)">
                <g id="fa-quote-left" transform="translate(98.000000, 247.000000)" sketch:type="MSShapeGroup">
                    <path d="M3.74233333,83.2848889 C6.05247619,85.5924444 8.80404762,86.6875556 12.1098571,86.6875556 L35.7802381,86.6875556 C39.0811429,86.6875556 41.8327143,85.5924444 44.1477619,83.2848889 C46.4579048,80.9822222 47.5565714,78.2395556 47.5565714,74.9444444 L47.5565714,51.3506667 C47.5565714,48.0604444 46.4579048,45.3177778 44.1477619,43.0151111 C41.8327143,40.7075556 39.0811429,39.6124444 35.7802381,39.6124444 L22.0174762,39.6124444 C20.3645714,39.6124444 18.932381,39.0648889 17.8337143,37.8573333 C16.6222381,36.7573333 16.0729048,35.3297778 16.0729048,33.6871111 L16.0729048,31.8195556 C16.0729048,27.4293333 17.613,23.8115556 20.6931905,20.7364444 C23.7782857,17.6662222 27.4127143,16.1262222 31.8171905,16.1262222 L35.6674286,16.1262222 C36.771,16.1262222 37.6489524,15.6911111 38.419,14.9186667 C39.1890476,14.1511111 39.6304762,13.276 39.6304762,12.176 L39.7432857,4.388 C39.7432857,3.288 39.3018571,2.41288889 38.5318095,1.64533333 C37.7617619,0.872888889 36.771,0.437777778 35.7802381,0.437777778 L31.8171905,0.437777778 C27.520619,0.437777778 23.4496667,1.31288889 19.5945238,2.96044444 C15.7442857,4.608 12.3305714,6.80311111 9.57409524,9.65333333 C6.71461905,12.396 4.51238095,15.7986667 2.85947619,19.6413333 C1.21147619,23.4791111 0.328619048,27.5417778 0.328619048,31.8195556 L0.328619048,74.9444444 C0.328619048,78.2395556 1.43219048,80.9822222 3.74233333,83.2848889 L3.74233333,83.2848889 Z M58.7884762,83.2848889 C61.098619,85.5924444 63.8501905,86.6875556 67.156,86.6875556 L90.8214762,86.6875556 C94.1272857,86.6875556 96.8788571,85.5924444 99.189,83.2848889 C101.504048,80.9822222 102.602714,78.2395556 102.602714,74.9444444 L102.602714,51.3506667 C102.602714,48.0604444 101.504048,45.3177778 99.189,43.0151111 C96.8788571,40.7075556 94.1272857,39.6124444 90.8214762,39.6124444 L77.063619,39.6124444 C75.4107143,39.6124444 73.9785238,39.0648889 72.8798571,37.8573333 C71.668381,36.7573333 71.1190476,35.3297778 71.1190476,33.6871111 L71.1190476,31.8195556 C71.1190476,27.4293333 72.6591429,23.8115556 75.7393333,20.7364444 C78.8244286,17.6662222 82.4588571,16.1262222 86.8584286,16.1262222 L90.7135714,16.1262222 C91.8122381,16.1262222 92.6950952,15.6911111 93.4651429,14.9186667 C94.2351905,14.1511111 94.676619,13.276 94.676619,12.176 L94.7894286,4.388 C94.7894286,3.288 94.348,2.41288889 93.5779524,1.64533333 C92.803,0.872888889 91.8122381,0.437777778 90.8214762,0.437777778 L86.8584286,0.437777778 C82.5667619,0.437777778 78.4958095,1.31288889 74.6406667,2.96044444 C70.7855238,4.608 67.3767143,6.80311111 64.6202381,9.65333333 C61.7607619,12.396 59.5585238,15.7986667 57.905619,19.6413333 C56.2527143,23.4791111 55.3747619,27.5417778 55.3747619,31.8195556 L55.3747619,74.9444444 C55.3747619,78.2395556 56.4734286,80.9822222 58.7884762,83.2848889 L58.7884762,83.2848889 Z" id="Fill-175"></path>
                </g>
            </g>
        </g>
    </g>
</svg>