<?xml version="1.0" encoding="UTF-8" standalone="no"?>
<svg width="273px" height="243px" viewBox="0 0 273 243" version="1.1" xmlns="http://www.w3.org/2000/svg" xmlns:xlink="http://www.w3.org/1999/xlink" xmlns:sketch="http://www.bohemiancoding.com/sketch/ns">
    <!-- Generator: Sketch 3.2.2 (9983) - http://www.bohemiancoding.com/sketch -->
    <title>Wounded_Warrior_Project_logo</title>
    <desc>Created with Sketch.</desc>
    <defs></defs>
    <g id="Homepage" stroke="none" stroke-width="1" fill="none" fill-rule="evenodd" sketch:type="MSPage">
        <g id="Desktop" sketch:type="MSArtboardGroup" transform="translate(-902.000000, -1900.000000)" fill="#000000">
            <g id="Wounded-Warrior" sketch:type="MSLayerGroup" transform="translate(-114.000000, 1774.000000)">
                <g id="Wounded_Warrior_Project_logo" transform="translate(1013.000000, 123.000000)" sketch:type="MSShapeGroup">
                    <g id="g2412" transform="translate(140.477390, 124.549261) scale(1, -1) translate(-140.477390, -124.549261) translate(1.429771, 0.000019)">
                        <g id="g2881" transform="translate(0.000019, 0.479926)">
                            <g id="g2552" transform="translate(1.727383, 30.977253)">
                                <path d="M9.5238181,0 L6.4761963,0 L1.90952553,16.6619765 C1.78333494,17.1492383 1.73333489,17.3275048 1.27142972,17.5295402 C0.883334128,17.7101836 0.65238154,17.8337817 0.65238154,18.2996515 C0.65238154,19.1458232 1.70476344,19.1458232 2.29762112,19.1458232 L8.24286456,19.1458232 C8.80476983,19.1458232 9.70238968,19.2218836 9.70238968,18.4066114 C9.70238968,17.5295402 8.5547696,17.7600982 8.5547696,16.8164742 C8.5547696,16.5835393 8.60476965,16.4290416 8.68096019,16.1747147 L11.2190577,6.78125807 L9.5238181,0 L9.5238181,0 Z M15.4547758,19.1458232 L18.8071598,6.37005665 L17.1952536,0 L14.1428699,0 L10.8095335,12.3336657 L12.5547732,19.1458232 L15.4547758,19.1458232 L15.4547758,19.1458232 Z M18.6071596,11.3353732 L19.58097,15.3309199 C19.6595415,15.6898298 19.7595416,15.9964482 19.7595416,16.3838808 C19.7595416,17.7101836 18.1428735,17.5105251 18.1428735,18.4565261 C18.1428735,19.0412402 18.6833501,19.1458232 19.1428744,19.1458232 L22.4547821,19.1458232 C22.9404968,19.1458232 23.5024021,19.0911548 23.5024021,18.4256265 C23.5024021,18.0429478 23.300021,17.9431185 22.9643064,17.786244 C21.6833528,17.2276756 21.3524002,16.3292124 21.0119237,15.0528242 L19.3762079,8.54490808 L19.321446,8.57105383 L18.6071596,11.3353732 L18.6071596,11.3353732 Z" id="path2554"></path>
                            </g>
                            <g id="g2556" transform="translate(23.865260, 30.005819)">
                                <path d="M9.5238181,19.0150945 C8.3142932,18.5801242 8.21191215,17.8123897 8.21191215,17.177761 L8.21191215,3.9099788 C8.21191215,3.27297314 8.3142932,2.5052387 9.5238181,2.06789152 L9.5238181,0.582337268 C4.08333701,1.07197595 1.54523949,5.45020145 1.54523949,10.5438699 C1.54523949,15.6351614 4.08333701,20.0133869 9.5238181,20.5006487 L9.5238181,19.0150945 L9.5238181,19.0150945 Z M10.6714382,2.06789152 C11.8785821,2.5052387 11.9809632,3.27297314 11.9809632,3.9099788 L11.9809632,17.177761 C11.9809632,17.8123897 11.8785821,18.5801242 10.6714382,19.0150945 L10.6714382,20.5006487 C16.1095383,20.0133869 18.6523977,15.6351614 18.6523977,10.5438699 C18.6523977,5.45020145 16.1095383,1.07197595 10.6714382,0.582337268 L10.6714382,2.06789152 L10.6714382,2.06789152 Z" id="path2558"></path>
                            </g>
                            <g id="g2560" transform="translate(44.094087, 30.588394)">
                                <path d="M9.5238181,0 C7.49524484,0 5.93571963,0.0237688681 4.16667042,0.993538686 C1.85952548,2.27705756 1.55000139,3.24920427 1.55000139,4.53272314 L1.55000139,16.6691072 C1.55000139,17.6151081 1.57619189,17.7696058 0.678572039,18.0453247 C0.340476497,18.1499077 0.116666772,18.3780888 0.116666772,18.7417525 C0.116666772,19.4809643 0.957143719,19.5356327 1.06428667,19.5356327 L8.31905511,19.5356327 C8.42143615,19.5356327 9.26905596,19.4809643 9.26905596,18.7417525 C9.26905596,18.3780888 9.03572242,18.1499077 8.70238878,18.0453247 C7.80714988,17.7696058 7.83095943,17.6151081 7.83095943,16.6691072 L7.83095943,4.34732597 C7.83095943,4.09537597 7.60238779,2.07739907 9.5238181,1.50932312 L9.5238181,0 L9.5238181,0 Z M14.1142984,15.4877944 C13.7047742,18.6870841 12.0619156,17.6911685 12.0619156,18.794044 C12.0619156,19.5855473 13.1142975,19.5356327 13.3976311,19.5356327 L16.3190623,19.5356327 C16.6071578,19.5356327 17.6571587,19.5855473 17.6571587,18.794044 C17.6571587,17.6911685 16.0166811,18.6870841 15.602395,15.4877944 L15.602395,5.83525712 C15.3976329,1.61152926 12.3476302,0.0760603779 10.6762001,0.049914623 L10.6762001,1.56161463 C13.0404879,2.27705756 13.9595364,3.61049106 14.1142984,5.88517174 L14.1142984,15.4877944 L14.1142984,15.4877944 Z" id="path2562"></path>
                            </g>
                            <g id="g2564" transform="translate(63.132438, 28.671197)">
                                <path d="M2.38095452,16.6382077 L2.43571648,16.6382077 L3.87381301,14.0783006 L3.87381301,6.34628778 C4.28333719,3.14462125 5.92381486,4.14529059 5.92381486,3.044792 C5.92381486,2.25091181 4.87619486,2.3055802 4.59048032,2.3055802 L1.66904912,2.3055802 C1.38095362,2.3055802 0.335714588,2.25091181 0.335714588,3.044792 C0.335714588,4.14529059 1.97619225,3.14462125 2.38095452,6.34628778 L2.38095452,16.6382077 L2.38095452,16.6382077 Z M15.7476332,8.49737034 L15.7476332,2.3055802 L11.9238203,2.3055802 L2.54047848,18.4565261 C2.12619239,19.171969 2.00238275,19.5546478 1.15238199,19.8374973 C0.721429221,19.9943718 0.385714633,20.0918242 0.385714633,20.6575233 C0.385714633,21.4252577 1.15238199,21.4252577 1.69523962,21.4514034 L8.28334079,21.4514034 L15.7476332,8.49737034 L15.7476332,8.49737034 Z M14.2571557,16.8188511 C14.2571557,20.4768799 12.1523919,19.5047332 12.1523919,20.683669 C12.1523919,21.3967351 13.0047736,21.4514034 13.2595357,21.4514034 L16.7476341,21.4514034 C17.0023963,21.4514034 17.8476351,21.3967351 17.8476351,20.683669 C17.8476351,19.5047332 15.7476332,20.4768799 15.7476332,16.8188511 L15.7476332,10.5937845 L15.6952522,10.5937845 L14.2571557,13.1822142 L14.2571557,16.8188511 L14.2571557,16.8188511 Z" id="path2566"></path>
                            </g>
                            <g id="g2568" transform="translate(80.743168, 30.977253)">
                                <path d="M9.5238181,0 L3.00952652,0 C2.44047839,0 1.80476353,0.0475377362 1.80476353,0.78912642 C1.80476353,1.14803633 2.03333516,1.37621746 2.3666688,1.48080048 C3.26428865,1.75889624 3.23809815,1.91339388 3.23809815,2.86177172 L3.23809815,16.2792978 C3.23809815,16.6619765 3.2880982,17.3536506 2.80238347,17.5105251 C2.29285921,17.6864147 1.80476353,17.7600982 1.80476353,18.4066114 C1.80476353,19.0721398 2.44047839,19.1458232 2.95476456,19.1458232 L9.5238181,19.1458232 L9.5238181,0 L9.5238181,0 Z M10.6762001,19.1458232 C15.0381088,19.1981148 18.6809692,16.1747147 18.9833504,9.57172318 C19.266684,3.55582267 14.9333468,0 10.6762001,0 L10.6762001,1.48080048 C12.2404872,1.68758963 12.3190587,3.14462125 12.3190587,4.11914484 L12.3190587,15.0266784 C12.3190587,15.9964482 12.2404872,17.4582336 10.6762001,17.6555152 L10.6762001,19.1458232 L10.6762001,19.1458232 Z" id="path2570"></path>
                            </g>
                            <g id="g2572" transform="translate(100.039614, 28.731570)">
                                <path d="M2.38095452,21.3919813 L9.14524633,21.3919813 L9.14524633,2.24615803 L2.38095452,2.24615803 C2.28095443,2.24615803 1.43571558,2.29131888 1.43571558,3.03290757 C1.43571558,3.39419436 1.66190626,3.61999861 1.99762085,3.72695852 C2.8952407,4.00505427 2.86666925,4.15955192 2.86666925,5.10555287 L2.86666925,18.5254558 C2.86666925,19.4714567 2.8952407,19.6259544 1.99762085,19.9016732 C1.66190626,20.0062563 1.43571558,20.2368143 1.43571558,20.5981011 C1.43571558,21.3373129 2.28095443,21.3919813 2.38095452,21.3919813 L2.38095452,21.3919813 Z M10.3047712,21.3919813 L16.0262049,21.3919813 L16.0262049,16.1937298 C16.0262049,16.0653779 15.9952525,15.5781161 15.2309661,15.5781161 C14.7904895,15.5781161 14.6642989,15.8300661 14.5357274,16.2222525 C13.8690601,18.2925209 12.5595351,19.549894 10.3047712,19.9016732 L10.3047712,21.3919813 L10.3047712,21.3919813 Z M10.3047712,12.8399425 C11.3809626,13.1227921 11.8690583,14.1163308 12.0976299,15.0956081 C12.2285824,15.5282015 12.3809635,15.9370261 12.9214402,15.9370261 C13.716679,15.9370261 13.5857265,15.0171709 13.5857265,14.8127586 L13.5857265,9.28174299 C13.5857265,9.07495384 13.716679,8.15747553 12.9214402,8.15747553 C12.3809635,8.15747553 12.2285824,8.56630006 12.0976299,8.99889346 C11.8690583,9.97104016 11.3809626,10.9669557 10.3047712,11.2498053 L10.3047712,12.8399425 L10.3047712,12.8399425 Z M10.3047712,3.72695852 C12.3809635,3.97890852 13.9762031,5.39077928 14.6642989,7.43727882 C14.8452515,7.82233449 15.0000135,8.23353591 15.4595377,8.23353591 C16.2762051,8.23353591 16.2047765,7.46342458 16.2047765,7.36121845 L16.2047765,2.24615803 L10.3047712,2.24615803 L10.3047712,3.72695852 L10.3047712,3.72695852 Z" id="path2574"></path>
                            </g>
                            <g id="g2576" transform="translate(116.257486, 30.977253)">
                                <path d="M9.5238181,0 L3.00952652,0 C2.4452403,0 1.80476353,0.0475377362 1.80476353,0.78912642 C1.80476353,1.14803633 2.03571612,1.37621746 2.3666688,1.48080048 C3.26666961,1.75889624 3.23809815,1.91339388 3.23809815,2.86177172 L3.23809815,16.2792978 C3.23809815,16.6619765 3.29286011,17.3536506 2.80476443,17.5105251 C2.29047825,17.6864147 1.80476353,17.7600982 1.80476353,18.4066114 C1.80476353,19.0721398 2.4452403,19.1458232 2.95714552,19.1458232 L9.5238181,19.1458232 L9.5238181,0 L9.5238181,0 Z M10.6762001,19.1458232 C15.0357278,19.1981148 18.6785882,16.1747147 18.9881123,9.57172318 C19.266684,3.55582267 14.9381087,0 10.6762001,0 L10.6762001,1.48080048 C12.2428682,1.68758963 12.3190587,3.14462125 12.3190587,4.11914484 L12.3190587,15.0266784 C12.3190587,15.9964482 12.2428682,17.4582336 10.6762001,17.6555152 L10.6762001,19.1458232 L10.6762001,19.1458232 Z" id="path2578"></path>
                            </g>
                            <g id="g2580" transform="translate(144.491797, 30.977253)">
                                <path d="M9.5238181,0 L6.4714344,0 L1.90952553,16.6619765 C1.78095398,17.1492383 1.73333489,17.3275048 1.26666781,17.5295402 C0.885715083,17.7101836 0.654762494,17.8337817 0.654762494,18.2996515 C0.654762494,19.1458232 1.70000153,19.1458232 2.29285921,19.1458232 L8.24286456,19.1458232 C8.80476983,19.1458232 9.70238968,19.2218836 9.70238968,18.4066114 C9.70238968,17.5295402 8.5547696,17.7600982 8.5547696,16.8164742 C8.5547696,16.5835393 8.60238869,16.4290416 8.68096019,16.1747147 L11.2142958,6.78125807 L9.5238181,0 L9.5238181,0 Z M15.445252,19.1458232 L18.8071598,6.37005665 L17.1952536,0 L14.138108,0 L10.8000097,12.3336657 L12.5500113,19.1458232 L15.445252,19.1458232 L15.445252,19.1458232 Z M18.6023977,11.3353732 L19.58097,15.3309199 C19.6595415,15.6898298 19.7571606,15.9964482 19.7571606,16.3838808 C19.7571606,17.7101836 18.1381116,17.5105251 18.1381116,18.4565261 C18.1381116,19.0412402 18.6833501,19.1458232 19.1381125,19.1458232 L22.4500202,19.1458232 C22.9381159,19.1458232 23.5000212,19.0911548 23.5000212,18.4256265 C23.5000212,18.0429478 23.2952591,17.9431185 22.9643064,17.786244 C21.6809719,17.2276756 21.3476383,16.3292124 21.0119237,15.0528242 L19.371446,8.54490808 L19.321446,8.57105383 L18.6023977,11.3353732 L18.6023977,11.3353732 Z" id="path2582"></path>
                            </g>
                            <g id="g2584" transform="translate(165.771578, 29.386165)">
                                <path d="M7.14286357,14.2613209 L4.73571855,5.50249296 C4.32619437,3.94087833 4.6857185,3.50590804 5.55000499,3.12322927 C5.96429108,2.94258587 6.32619617,2.79046511 6.32619617,2.28181134 C6.32619617,1.55923775 5.50476686,1.59013728 4.99286164,1.59013728 L2.04047803,1.59013728 C1.53095376,1.59013728 0.602381495,1.61152926 0.602381495,2.35311794 C0.602381495,2.96635474 1.04047713,2.94258587 1.60476335,3.2254354 C2.14524003,3.50590804 2.83809779,4.09299908 3.32381252,5.91369438 L6.40000576,17.1492383 L6.47857726,17.1492383 L7.14286357,14.2613209 L7.14286357,14.2613209 Z M9.88810414,6.55545382 L6.14524363,6.55545382 L6.5023868,8.03863119 L9.63572296,8.03863119 L7.04286348,19.3526124 L7.37619711,20.7383374 L13.0428689,20.7383374 L16.8928723,4.5588689 C17.0381106,3.83629531 17.069063,3.34903351 17.7881112,3.04716889 C18.1476354,2.89504813 18.4262071,2.71202785 18.4262071,2.25091181 C18.4262071,1.55923775 17.5071586,1.59013728 17.016682,1.59013728 L10.628581,1.59013728 C10.1214377,1.59013728 9.37619891,1.63767501 9.37619891,2.30320332 C9.37619891,2.71202785 9.52858,2.84275662 9.86191364,3.02102313 C10.5309619,3.4060788 10.628581,3.58434531 10.4047713,4.58026088 L9.88810414,6.55545382 L9.88810414,6.55545382 Z" id="path2586"></path>
                            </g>
                            <g id="g2588" transform="translate(184.740166, 28.241694)">
                                <path d="M2.38095452,19.0150945 C2.38095452,19.9610954 2.40714502,20.1155931 1.50952517,20.3913119 C1.17857249,20.495895 0.942857991,20.726453 0.942857991,21.0877398 C0.942857991,21.8269516 1.7904778,21.88162 1.8952398,21.88162 L8.66667447,21.88162 L8.66667447,5.59519155 C8.66667447,4.6491906 8.63810301,4.49469296 9.53572287,4.2165972 C9.87143746,4.10963729 10.10239,3.88383305 10.10239,3.52254625 C10.10239,2.78095757 9.25715119,2.73579672 9.15953205,2.73579672 L1.8952398,2.73579672 C1.7904778,2.73579672 0.942857991,2.78095757 0.942857991,3.52254625 C0.942857991,3.88383305 1.17857249,4.10963729 1.50952517,4.2165972 C2.40714502,4.49469296 2.38095452,4.6491906 2.38095452,5.59519155 L2.38095452,19.0150945 L2.38095452,19.0150945 Z M9.81905646,21.88162 L9.95238991,21.88162 C11.6142962,21.88162 13.3595358,21.9339115 14.8976325,21.1923228 C16.6143007,20.3461511 17.4904919,18.941411 17.5143015,16.9923638 C17.5643015,14.0450242 15.6190617,12.7615053 13.0000117,12.1506454 L13.0000117,12.1007307 C15.2809661,11.7655897 17.4643014,11.0976845 17.5143015,8.38803355 L17.5143015,6.13236797 C17.5143015,5.90418683 17.433349,5.39077928 17.7666827,5.39077928 C18.1857307,5.39077928 18.2571593,6.13236797 18.8738265,6.13236797 C19.2071601,6.13236797 19.6214462,5.75206608 19.6214462,5.39077928 C19.6214462,4.6491906 18.7714455,3.70556653 18.2071592,3.26584248 C17.3357299,2.54564577 16.4095386,2.34598728 15.3119185,2.34598728 C14.2047747,2.34598728 13.2047738,2.62883681 12.4142969,3.42747078 C11.5119151,4.3425722 11.3809626,5.47159343 11.3809626,6.67429816 L11.3809626,8.4141793 C11.3809626,9.59073827 11.361915,11.024001 9.81905646,11.1784987 L9.81905646,12.6854449 C11.204772,12.8185506 11.3809626,13.6623454 11.3809626,14.9149647 L11.3809626,18.016802 C11.3809626,19.297944 11.1023909,19.9088039 9.81905646,20.36992 L9.81905646,21.88162 L9.81905646,21.88162 Z" id="path2590"></path>
                            </g>
                            <g id="g2592" transform="translate(204.385422, 28.241694)">
                                <path d="M2.38095452,19.0150945 C2.38095452,19.9610954 2.40952598,20.1155931 1.51190612,20.3913119 C1.17619153,20.495895 0.942857991,20.726453 0.942857991,21.0877398 C0.942857991,21.8269516 1.79285876,21.88162 1.89285885,21.88162 L8.66667447,21.88162 L8.66667447,5.59519155 C8.66667447,4.6491906 8.63810301,4.49469296 9.53810382,4.2165972 C9.87143746,4.10963729 10.104771,3.88383305 10.104771,3.52254625 C10.104771,2.78095757 9.25477023,2.73579672 9.15477014,2.73579672 L1.89285885,2.73579672 C1.79285876,2.73579672 0.942857991,2.78095757 0.942857991,3.52254625 C0.942857991,3.88383305 1.17619153,4.10963729 1.51190612,4.2165972 C2.40952598,4.49469296 2.38095452,4.6491906 2.38095452,5.59519155 L2.38095452,19.0150945 L2.38095452,19.0150945 Z M9.8166755,21.88162 L9.94524705,21.88162 C11.6166771,21.88162 13.3595358,21.9339115 14.8976325,21.1923228 C16.6166816,20.3461511 17.48573,18.941411 17.5119205,16.9923638 C17.5595396,14.0450242 15.6166807,12.7615053 12.9976307,12.1506454 L12.9976307,12.1007307 C15.2809661,11.7655897 17.4619205,11.0976845 17.5119205,8.38803355 L17.5119205,6.13236797 C17.5119205,5.90418683 17.43573,5.39077928 17.7690636,5.39077928 C18.1809687,5.39077928 18.2571593,6.13236797 18.8714456,6.13236797 C19.2023982,6.13236797 19.6166843,5.75206608 19.6166843,5.39077928 C19.6166843,4.6491906 18.7690645,3.70556653 18.2047783,3.26584248 C17.330968,2.54564577 16.4119195,2.34598728 15.3095376,2.34598728 C14.2071556,2.34598728 13.2000119,2.62883681 12.407154,3.42747078 C11.5119151,4.3425722 11.3833436,5.47159343 11.3833436,6.67429816 L11.3833436,8.4141793 C11.3833436,9.59073827 11.3571531,11.024001 9.8166755,11.1784987 L9.8166755,12.6854449 C11.204772,12.8185506 11.3833436,13.6623454 11.3833436,14.9149647 L11.3833436,18.016802 C11.3833436,19.297944 11.10001,19.9088039 9.8166755,20.36992 L9.8166755,21.88162 L9.8166755,21.88162 Z" id="path2594"></path>
                            </g>
                            <g id="g2596" transform="translate(223.502820, 29.084300)">
                                <path d="M9.5238181,4.75377362 C9.5238181,3.80777267 9.50000855,3.65089814 10.3976284,3.37280238 C10.7285811,3.26821936 10.9619146,3.04003823 10.9619146,2.68112832 C10.9619146,1.93953964 10.1166758,1.8920019 10.0071519,1.8920019 L2.75238343,1.8920019 C2.65476429,1.8920019 1.80476353,1.93953964 1.80476353,2.68112832 C1.80476353,3.04003823 2.03571612,3.26821936 2.37143071,3.37280238 C3.26905056,3.65089814 3.24286006,3.80777267 3.24286006,4.75377362 L3.24286006,18.1736765 C3.24286006,19.1196775 3.26905056,19.2717982 2.37143071,19.549894 C2.03571612,19.654477 1.80476353,19.8826582 1.80476353,20.2463218 C1.80476353,20.9855336 2.65476429,21.040202 2.75238343,21.040202 L10.0071519,21.040202 C10.1166758,21.040202 10.9619146,20.9855336 10.9619146,20.2463218 C10.9619146,19.8826582 10.7285811,19.654477 10.3976284,19.549894 C9.50000855,19.2717982 9.5238181,19.1196775 9.5238181,18.1736765 L9.5238181,4.75377362 L9.5238181,4.75377362 Z" id="path2598"></path>
                            </g>
                            <g id="g2600" transform="translate(234.633306, 30.005819)">
                                <path d="M9.5238181,19.0150945 C8.32143606,18.5801242 8.21429311,17.8123897 8.21429311,17.177761 L8.21429311,3.9099788 C8.21429311,3.27297314 8.32143606,2.5052387 9.5238181,2.06789152 L9.5238181,0.582337268 C4.08809892,1.07197595 1.55000139,5.45020145 1.55000139,10.5438699 C1.55000139,15.6351614 4.08809892,20.0133869 9.5238181,20.5006487 L9.5238181,19.0150945 L9.5238181,19.0150945 Z M10.678581,2.06789152 C11.8809631,2.5052387 11.988106,3.27297314 11.988106,3.9099788 L11.988106,17.177761 C11.988106,17.8123897 11.8809631,18.5801242 10.678581,19.0150945 L10.678581,20.5006487 C16.1166812,20.0133869 18.6547787,15.6351614 18.6547787,10.5438699 C18.6547787,5.45020145 16.1166812,1.07197595 10.678581,0.582337268 L10.678581,2.06789152 L10.678581,2.06789152 Z" id="path2602"></path>
                            </g>
                            <g id="g2604" transform="translate(254.185467, 28.241694)">
                                <path d="M2.38095452,19.0150945 C2.38095452,19.9610954 2.41190693,20.1155931 1.51190612,20.3913119 C1.18095344,20.495895 0.95238181,20.726453 0.95238181,21.0877398 C0.95238181,21.8269516 1.79523971,21.88162 1.89285885,21.88162 L8.66905542,21.88162 L8.66905542,5.59519155 C8.66905542,4.6491906 8.64524588,4.49469296 9.54048478,4.2165972 C9.8690565,4.10963729 10.1000091,3.88383305 10.1000091,3.52254625 C10.1000091,2.78095757 9.25715119,2.73579672 9.1571511,2.73579672 L1.89285885,2.73579672 C1.79523971,2.73579672 0.95238181,2.78095757 0.95238181,3.52254625 C0.95238181,3.88383305 1.18095344,4.10963729 1.51190612,4.2165972 C2.41190693,4.49469296 2.38095452,4.6491906 2.38095452,5.59519155 L2.38095452,19.0150945 L2.38095452,19.0150945 Z M9.8166755,21.88162 L9.95238991,21.88162 C11.621439,21.88162 13.3571549,21.9339115 14.9000134,21.1923228 C16.6166816,20.3461511 17.4904919,18.941411 17.5119205,16.9923638 C17.5643015,14.0450242 15.6190617,12.7615053 12.9976307,12.1506454 L12.9976307,12.1007307 C15.285728,11.7655897 17.4595395,11.0976845 17.5119205,8.38803355 L17.5119205,6.13236797 C17.5119205,5.90418683 17.433349,5.39077928 17.7690636,5.39077928 C18.1833497,5.39077928 18.2619212,6.13236797 18.8762075,6.13236797 C19.2047792,6.13236797 19.6190653,5.75206608 19.6190653,5.39077928 C19.6190653,4.6491906 18.7738264,3.70556653 18.2047783,3.26584248 C17.3357299,2.54564577 16.4095386,2.34598728 15.3095376,2.34598728 C14.2095366,2.34598728 13.2071547,2.62883681 12.4119159,3.42747078 C11.5142961,4.3425722 11.3809626,5.47159343 11.3809626,6.67429816 L11.3809626,8.4141793 C11.3809626,9.59073827 11.3571531,11.024001 9.8166755,11.1784987 L9.8166755,12.6854449 C11.2071529,12.8185506 11.3809626,13.6623454 11.3809626,14.9149647 L11.3809626,18.016802 C11.3809626,19.297944 11.1047719,19.9088039 9.8166755,20.36992 L9.8166755,21.88162 L9.8166755,21.88162 Z" id="path2606"></path>
                            </g>
                            <g id="g2608" transform="translate(62.379104, 60.592074)">
                                <path d="M52.3809995,173.512737 C49.9667116,173.538883 50.5619503,172.673696 49.8286163,172.224464 C48.8381392,171.613604 47.7309953,171.24281 43.4667058,171.24281 C41.0619417,171.24281 40.7190843,169.802417 38.8262254,169.374577 C36.5071757,168.832647 36.1166992,166.434368 33.4809825,166.049312 C33.3762205,166.035051 32.6857437,166.196679 32.4643149,166.182418 C26.4190714,165.735563 27.7857393,162.286701 25.3476419,158.82833 C25.0190701,158.364837 24.8976415,159.182486 22.5357346,160.140372 C19.1285886,161.526097 17.5119205,161.694856 12.8476306,160.796393 C12.0571537,159.931206 8.27381697,159.50812 5.91191008,155.524458 C3.62143183,151.66677 0.609524358,148.53641 2.32619257,141.671961 C4.05476555,134.750467 9.79286596,132.440133 9.79286596,132.440133 L11.7142963,129.568854 C11.7142963,129.568854 15.0619183,130.766805 15.7809666,132.913133 C16.4952529,135.059462 16.9762058,132.440133 15.7809666,130.99974 C14.5833465,129.568854 11.4976294,126.0059 10.9619146,124.018823 C9.2881036,117.808018 8.0261977,112.414862 8.11905493,111.804002 C8.63096015,108.578566 6.85000616,105.319854 5.76190995,98.7192398 C4.869052,93.2785459 10.9047717,98.6455563 7.79286416,92.6724398 C6.84048235,85.0949246 8.32381702,83.9183657 9.46905614,82.2901982 C9.19286542,82.6823845 10.523819,80.2698444 12.2166777,80.0487939 C12.5785827,81.9289114 11.4976294,83.6022397 11.4976294,83.6022397 C11.4976294,83.6022397 11.2333434,86.7349765 11.414296,87.3933742 C11.6809629,88.3774053 12.0119156,90.7210157 12.3976302,91.1512322 C13.4166787,92.2873841 12.669059,88.467727 13.5642979,88.0184954 C14.0904889,87.7570379 14.6500132,88.9050742 14.6738227,89.2734916 C14.764299,90.7067544 15.3095376,90.6164327 14.9690611,92.3182837 C14.8857277,92.7651384 14.1476318,93.5304959 14.1928699,94.1128332 C13.5642979,96.5277502 14.9785849,96.5443884 16.2666813,96.6965092 C16.9833486,96.7892077 17.4952538,99.5654115 17.5166824,103.161641 C17.5357301,105.291332 21.6404957,117.213796 25.5857373,120.795765 C30.469075,125.231035 30.9595517,126.564469 36.01908,133.110415 C37.3428908,134.819397 39.3405116,133.975602 37.5333671,131.066292 C35.9190799,128.473109 29.8690745,124.439532 26.542881,120.253834 C25.6047849,119.074898 22.1952581,111.147981 28.8166926,107.359223 C30.5785989,106.356177 29.4643122,103.316139 26.7666908,95.7005936 C25.078594,90.9420662 24.1619265,93.7111393 23.4952592,92.4490124 C22.8238301,91.1797549 20.9452569,84.227361 19.6666844,80.3007439 C18.4476357,76.5737854 14.5952512,64.0761146 14.5952512,64.0761146 L14.6857275,61.0693528 L8.30000747,41.9829517 C8.30000747,41.9829517 8.86429369,39.7106479 10.054771,41.8641074 C11.5095342,44.516713 17.4476348,61.5043231 17.4476348,61.5043231 L19.3643031,61.8489716 L25.1071655,77.0277708 L26.6071668,79.2097529 L28.9857404,79.2739288 C28.9857404,79.2739288 29.4000265,77.6338769 30.5857418,78.8579737 C31.1381233,79.4284265 30.154789,79.732668 30.785742,80.6857996 C31.2405043,81.3679661 31.883362,80.7333373 32.5238388,81.4582878 C33.7214589,82.8083595 34.9928886,85.0901709 34.9928886,85.0901709 L35.2595555,94.0914412 L38.7738444,89.4493813 C38.7738444,89.4493813 40.0619408,90.0531105 41.6905137,90.8660058 C43.6714679,91.8571676 42.8690862,88.4130586 41.5095612,87.5478718 C40.6952747,83.3669279 41.2762276,83.6711694 42.2143237,82.1951227 C42.6238479,80.0297788 41.7333709,80.0464171 41.4952754,79.0885317 C41.254799,78.1377769 41.8667043,76.3028203 40.6143223,76.1055387 C37.7857483,75.6610609 38.1619391,72.8634651 37.9381294,71.4634788 C37.6905101,69.9589094 41.3190848,69.5405774 39.3119401,68.2380434 C37.695272,67.1922132 34.6476502,66.1487599 34.4071738,64.4754316 C34.1666974,62.8092339 34.1928879,54.3427631 34.1928879,54.3427631 C34.1928879,54.3427631 36.3381279,52.6385353 36.1881278,52.0419367 C36.0405086,51.4500919 33.4809825,50.2830404 33.4809825,50.2830404 L32.2881243,44.5476126 C32.2881243,44.5476126 29.4143122,39.5323814 27.7357392,37.8638069 C26.0643092,36.1952323 24.2690695,33.031596 24.2690695,33.031596 C24.2690695,33.031596 22.2404962,31.7219313 22.7166871,31.2441771 C23.0524017,30.9066592 23.4309735,30.2839148 23.4309735,30.2839148 L17.6904921,24.9691959 C17.6904921,24.9691959 12.4500112,18.2877671 15.4619187,13.921426 C17.9547781,10.3085581 20.6190662,9.63827601 22.0524008,10.3513421 C23.4833545,11.0691619 31.3238377,14.9054572 31.8643144,19.0436171 C32.304791,22.3593742 34.7976504,21.3254284 34.7976504,21.3254284 L41.8571805,28.5511643 L42.5738478,31.1776243 C42.5738478,31.1776243 48.5405199,34.9235979 51.6595703,38.5816267 C54.6357635,42.0566352 60.8810072,50.6134277 61.1238645,55.6239051 C61.359579,60.6415132 65.2833921,70.1466835 65.2833921,70.1466835 C65.2833921,70.1466835 70.5024444,60.9861617 70.7976828,58.167174 C71.0572068,55.7166037 68.8881572,36.4257903 70.0833964,34.5195271 C71.2786356,32.610887 73.3857803,29.8917285 72.9810181,26.4737653 C72.5405415,22.7658219 71.4881596,13.125169 71.0429211,9.20330572 C70.8810162,7.82471137 69.111967,4.64205994 70.783397,3.2064203 C72.459589,1.78028822 78.6357851,1.70185096 80.0738816,2.17247454 C81.5072162,2.65498257 93.6024652,1.12664435 96.9381825,1.86823303 C100.721519,2.70727408 100.190566,4.955809 99.266756,7.53473118 C98.6000887,9.38870289 91.3738918,9.20330572 90.6524625,10.4012567 C89.9381762,11.5968307 85.2262672,13.7051293 85.8524582,18.9295265 C86.3286491,22.8561436 85.8715059,26.7613686 87.066745,28.5511643 C88.2572223,30.3409601 91.3357965,31.981012 92.7786549,35.5249502 C94.4143707,39.5656578 97.3548495,44.2671399 97.3548495,48.3744003 C97.3548495,50.3947541 95.1738952,54.8942008 93.9167512,59.2106273 C92.8619883,62.8330028 92.7072263,63.122983 92.1929401,66.6883132 C91.6715111,70.3130656 89.9381762,78.5584859 89.2215089,83.4786416 C88.6310321,87.4955803 86.2596014,91.2558152 86.2596014,91.2558152 C86.2596014,91.2558152 95.1953238,87.3101831 98.1762788,84.5506176 C101.761996,84.331944 106.245334,80.2532062 106.245334,80.2532062 C106.245334,80.2532062 115.462009,64.6536981 115.531056,62.9375858 C115.609628,61.2286042 117.921535,61.5043231 117.921535,61.5043231 C117.921535,61.5043231 120.076299,59.8333716 118.642964,57.4422235 C117.207248,55.0605829 116.833438,49.7601253 114.928675,47.6114197 C113.007245,45.4650909 109.640575,44.8922612 109.640575,44.8922612 C109.640575,44.8922612 107.802478,39.729663 109.002479,39.016597 C110.200099,38.2940234 117.823916,39.0047125 119.840584,40.2573319 C121.809633,41.4790517 126.942971,43.6253805 127.897734,45.2987088 C128.85964,46.9696602 130.785832,49.745864 131.740595,49.2681098 C132.695358,48.7903555 140.219174,53.6392046 139.502507,56.0279759 C138.783458,58.4215009 135.352503,62.4170476 134.914407,63.1776514 C133.35012,65.8635335 140.726317,72.1551529 141.552508,78.8769887 C141.721556,80.3007439 136.733456,80.4528647 136.733456,80.4528647 C136.733456,80.4528647 131.664404,81.1207699 129.064402,81.7791675 C126.659638,82.3924043 125.897732,84.3271902 124.173921,85.2684374 C122.531063,86.1621468 120.242965,94.7213162 117.628677,98.0774804 C114.976294,101.471675 112.988197,104.08625 111.569148,108.14835 C110.435814,111.404685 109.545337,115.138774 109.835813,119.034491 C110.085813,122.419178 113.947722,121.53973 113.442959,124.810326 C112.900102,128.247305 113.028673,131.344388 111.095338,132.440133 C108.109621,134.115838 110.635814,134.31312 112.040577,136.07677 C113.573912,138.013933 115.504866,141.58164 115.74058,143.975165 C115.9882,146.361559 113.857245,147.481073 113.621531,149.149647 C113.381054,150.825352 115.247723,150.782568 115.012008,151.973389 C114.773913,153.166586 111.459624,156.990997 108.342955,157.946505 C105.226285,156.960097 102.802473,161.395368 100.561995,161.766162 C98.326279,162.139334 97.2929447,161.412006 97.5262782,162.605203 C97.645326,163.185164 95.4929431,165.317231 94.9310378,167.061866 C95.3215144,169.464899 97.223897,170.315824 98.2691361,172.424123 C99.8834232,175.692342 98.6572316,176.826117 97.2619923,178.497069 C95.6429432,180.446116 90.1096049,184.608045 87.9976982,184.19922 C85.3191244,183.678682 83.0762652,182.730304 77.8357843,181.541861 C76.5857832,181.256634 75.1024485,179.4811 72.4714938,179.718788 C69.8381581,179.961231 67.9262516,181.152051 66.0167261,180.19892 C64.1048196,179.245788 63.6214858,177.092329 62.4310086,175.896755 C61.2310075,174.705934 58.9429102,173.443807 52.3809995,173.512737 L52.3809995,173.512737 Z M33.6857446,93.6422096 C34.1928879,91.1892624 33.9928877,86.5852327 34.0976497,85.7675836 C34.1928879,84.9475577 29.9905032,81.4654185 29.2833597,80.8474279 C28.5571686,80.236568 26.9166909,80.0297788 26.9166909,81.056594 C26.9166909,82.0786553 28.9738356,86.6874388 29.6928839,87.8093294 C30.4024083,88.9359737 30.3071701,91.3912978 30.4024083,93.8489988 C30.5047894,96.3066997 31.5333617,96.1022874 32.8690772,96.6109412 C34.1928879,97.1267257 33.1762203,96.1022874 33.6857446,93.6422096 L33.6857446,93.6422096 Z M95.3024667,162.524389 L92.8405597,162.935591 C92.8405597,162.935591 93.3596078,164.26427 93.7667511,164.675472 C94.1810371,165.084296 95.3024667,162.524389 95.3024667,162.524389 L95.3024667,162.524389 Z M81.6334068,161.029328 C81.6334068,161.029328 81.0929301,157.181148 81.2738827,158.56925 C81.4572162,159.914568 84.2762663,161.785178 83.300075,158.367214 C82.4881695,155.526835 80.8262632,153.60631 80.8262632,153.60631 C80.8453109,150.799207 79.3167381,148.379536 79.3167381,148.379536 C78.9191186,148.244053 78.5286421,149.755753 78.2429276,150.485458 C78.2000704,150.599548 79.2000713,150.718393 79.1429284,150.799207 C79.0834045,150.884775 78.2000704,151.110579 78.2000704,151.110579 C78.2000704,151.110579 77.9524511,152.268123 78.064356,152.859968 C78.1834037,153.492219 78.431023,153.677617 79.1048331,153.727531 C79.7810242,153.770315 78.7619756,154.000873 78.6286422,154.580834 C78.4976897,155.160794 78.8762615,156.028358 78.4262611,156.876906 C77.9810226,157.730209 77.7262604,158.284023 77.7262604,158.284023 L78.0048321,160.720332 L78.692928,160.375684 C78.692928,160.375684 78.4405468,159.888422 78.5595945,159.58418 C78.6834041,159.277562 79.1667379,159.156341 79.2714999,159.047004 C79.4715001,158.82833 79.5334049,158.887753 79.8262623,158.82833 C79.9429291,158.804561 80.2834056,158.980451 80.3238818,159.379768 C80.3429295,159.598442 80.4476915,160.026281 80.4643581,160.259216 C80.4786439,160.760739 80.1143578,161.155303 80.1143578,161.155303 L81.1095968,161.3407 L81.6334068,161.029328 L81.6334068,161.029328 Z M67.6095847,177.151751 C67.6095847,177.151751 68.7810143,177.377555 69.321491,177.600982 C69.8572057,177.822033 73.5405424,177.943254 75.4619727,177.510661 C78.4572135,176.840379 80.5548344,175.207457 82.5548362,173.455692 C84.3881712,171.841786 85.4072197,169.141642 86.0500774,168.262194 C88.0262697,165.573935 86.9476973,165.452714 86.4096016,164.915537 C85.8953154,164.404507 84.6881715,164.00519 84.240552,163.64628 C83.7976945,163.284993 81.5786448,162.883299 81.5786448,162.883299 C81.728645,163.527436 81.4357876,163.788893 81.2191207,164.972583 C80.4000724,169.426869 80.102453,168.982391 78.692928,171.841786 C77.9476892,173.360616 75.864354,175.083859 74.9262579,175.602021 C74.1714953,176.02273 71.3810166,176.704896 70.5310159,176.752434 C69.6810151,176.797595 67.6095847,177.151751 67.6095847,177.151751 L67.6095847,177.151751 Z M56.3238602,117.451485 C57.3929088,118.704104 57.8786235,120.705443 58.9571959,121.632429 C60.6310069,123.063315 60.211959,120.377432 60.211959,120.377432 C60.211959,120.377432 59.735768,118.706481 59.9786254,117.513284 C60.1952923,116.412785 62.9000566,113.299064 65.8952974,119.281688 C66.3738693,120.237196 67.7214895,119.92107 68.1381566,118.794426 C69.0881574,116.222634 68.4643473,113.757803 67.4429178,111.870555 C66.7500601,110.594166 64.8762489,109.130004 64.8762489,109.130004 C66.12625,109.759879 66.7214886,112.676319 67.1143461,113.795833 C68.8214905,118.69222 66.2595834,120.812403 65.3000588,119.12719 C64.8262488,118.300033 60.8524357,115.483422 59.9000539,115.424 C58.9429102,115.362201 59.5738631,119.317341 59.0952913,119.497984 C58.6119575,119.678628 56.3238602,117.451485 56.3238602,117.451485 L56.3238602,117.451485 Z M58.2405286,155.90476 C61.2810075,154.640256 64.7357725,153.539757 65.600059,150.181216 C66.1500595,148.034887 66.0143451,145.570056 66.0167261,143.364305 C66.0167261,141.565001 66.1333929,131.123338 65.5976781,128.496878 C65.3572017,132.318912 65.1643444,146.266484 64.0429148,149.632155 C62.8476756,153.226008 60.0952922,153.813099 56.6833843,156.137694 L58.2405286,155.90476 L58.2405286,155.90476 Z" id="path2610"></path>
                            </g>
                            <g id="g2612" transform="translate(22.358592, 57.930911)">
                                <path d="M0,0 L230.176398,0 L217.2621,5.46921655 L208.259711,5.46921655 L201.604943,7.42539439 L200.431133,7.81520383 L197.297797,5.85902598 C197.297797,5.85902598 199.643037,7.42539439 192.99065,7.42539439 C186.333501,7.42539439 179.678733,6.64339863 179.678733,6.64339863 L177.331112,7.42539439 L174.200157,7.42539439 L171.457297,7.42539439 L154.235853,5.46921655 C154.235853,5.46921655 157.366808,6.25121231 155.016806,7.03083118 C152.673947,7.81520383 145.623941,7.81520383 145.623941,7.81520383 L143.276319,7.81520383 C143.276319,7.81520383 139.754888,6.64339863 138.573934,6.64339863 L117.438201,6.64339863 L110.881052,5.75206608 L107.650097,4.29741135 L105.695333,4.29741135 L86.5143636,5.07940711 C86.5143636,5.07940711 87.6810313,3.90522503 82.5929315,3.90522503 C77.5119745,3.90522503 73.5905424,5.07940711 73.5905424,5.07940711 L49.7143305,2.34598728 L55.2000497,3.90522503 L49.7143305,3.90522503 L41.4952754,3.12560615 C41.4952754,3.12560615 41.8809901,2.73341983 40.316703,2.73341983 C38.7500349,2.73341983 20.3547802,1.55923775 20.3547802,1.55923775 L9.00238905,2.73341983 L0,0 L0,0 Z" id="path2614"></path>
                            </g>
                            <g id="g2616" transform="translate(76.553164, 1.852308)">
                                <path d="M9.5238181,4.75377362 C9.5238181,3.97890852 9.64048487,3.83391842 10.5881048,3.60573729 C11.0190575,3.51779248 11.2500101,3.2610887 11.2500101,2.88554059 C11.2500101,2.51474624 10.9619146,2.1986203 10.5881048,2.14157501 C10.3595331,2.08452973 10.3333426,2.08452973 9.55715146,2.08452973 L3.25714579,2.08452973 C2.62619284,2.08452973 2.60000234,2.08452973 2.37143071,2.14157501 C2.02381135,2.22714294 1.82381117,2.4862236 1.82381117,2.85939483 C1.82381117,3.20404342 2.02381135,3.46312408 2.39762121,3.57483776 C3.17381238,3.83391842 3.25714579,3.91948635 3.25714579,4.63968305 L3.25714579,18.668069 C3.25714579,19.3858888 3.17381238,19.4714567 2.39762121,19.7281605 C2.02381135,19.844628 1.82381117,20.1037086 1.82381117,20.4459803 C1.82381117,20.8191516 2.02381135,21.0782322 2.37143071,21.1638001 C2.60000234,21.2208454 2.62619284,21.2208454 3.25714579,21.2208454 L9.5238181,21.2208454 L9.5238181,4.75377362 L9.5238181,4.75377362 Z M10.6762001,21.2208454 C11.9095345,21.2208454 13.0023927,21.1352775 13.8666791,20.9926643 C16.6523959,20.474503 18.378588,18.3257973 18.378588,15.3665732 C18.378588,12.3289119 16.597634,10.1730755 13.6357266,9.63114535 C12.8000115,9.48615525 11.7952487,9.42910997 10.6762001,9.42910997 L10.6762001,10.9241718 C11.9095345,11.2070213 12.2547729,11.7251826 12.2547729,13.1584454 L12.2547729,17.6650228 C12.2547729,18.9818181 11.8262011,19.528502 10.6762001,19.6996379 L10.6762001,21.2208454 L10.6762001,21.2208454 Z" id="path2618"></path>
                            </g>
                            <g id="g2620" transform="translate(93.968656, 1.852308)">
                                <path d="M9.5238181,4.75377362 C9.5238181,3.97890852 9.64048487,3.83391842 10.5881048,3.60573729 C11.0214385,3.51779248 11.2500101,3.2610887 11.2500101,2.88554059 C11.2500101,2.51474624 10.9642956,2.1986203 10.5881048,2.14157501 C10.3595331,2.08452973 10.3309617,2.08452973 9.5547705,2.08452973 L3.25952674,2.08452973 C2.62857379,2.08452973 2.60000234,2.08452973 2.36904975,2.14157501 C2.02381135,2.22714294 1.82619212,2.4862236 1.82619212,2.85939483 C1.82619212,3.20404342 2.02381135,3.46312408 2.40000216,3.57483776 C3.17619333,3.83391842 3.25952674,3.91948635 3.25952674,4.63968305 L3.25952674,18.668069 C3.25952674,19.3858888 3.17619333,19.4714567 2.40000216,19.7281605 C2.02381135,19.844628 1.82619212,20.1037086 1.82619212,20.4459803 C1.82619212,20.8191516 2.02381135,21.0782322 2.36904975,21.1638001 C2.60000234,21.2208454 2.62857379,21.2208454 3.25952674,21.2208454 L9.5238181,21.2208454 L9.5238181,4.75377362 L9.5238181,4.75377362 Z M10.6166762,21.2208454 C13.4904883,21.1923228 14.2666795,21.1067549 15.3309662,20.6765383 C17.3404918,19.8707737 18.3476356,18.4089883 18.3476356,16.2864284 C18.3476356,14.8507888 17.802397,13.5886619 16.7976342,12.8161737 C16.0762049,12.2409671 15.445252,11.9533638 13.7785838,11.466102 C15.3595376,11.2070213 15.9643001,11.0382623 16.7404913,10.5771463 C17.6881112,10.0352161 18.2619212,9.08446138 18.2619212,8.07903826 L18.2619212,5.18399013 C18.2619212,4.86786418 18.3476356,4.75377362 18.5500167,4.75377362 C18.6952549,4.75377362 18.7500169,4.80844201 18.954779,5.03900003 C19.1833506,5.32660334 19.4404937,5.49773919 19.6976368,5.49773919 C19.9881132,5.49773919 20.3881136,5.06989956 20.3881136,4.75377362 C20.3881136,4.06447644 19.4976366,2.88554059 18.5500167,2.28656511 C17.8904923,1.88249435 17.1404916,1.7113585 16.1095383,1.7113585 C13.6357266,1.7113585 12.1690586,3.20404342 12.1690586,5.72592032 L12.1690586,8.07903826 C12.1690586,9.68819063 11.7095343,10.4060104 10.6166762,10.520101 L10.6166762,12.0389317 C11.7404868,12.1839218 12.1690586,12.6997062 12.1690586,13.96421 L12.1690586,17.6650228 C12.1690586,18.8415817 11.8262011,19.297944 10.6166762,19.6687383 L10.6166762,21.2208454 L10.6166762,21.2208454 Z" id="path2622"></path>
                            </g>
                            <g id="g2624" transform="translate(113.081292, 2.910736)">
                                <path d="M9.5238181,19.0150945 C8.57619819,18.6989685 8.23095979,18.1808072 8.23095979,17.0660473 L8.23095979,4.52796937 C8.23095979,3.00676181 8.54762674,2.43155521 9.5238181,2.17247454 L9.5238181,0.653643872 C4.63809941,1.05533774 1.56428712,4.9011406 1.56428712,10.5795232 C1.56428712,16.2911822 4.78333764,20.305744 9.5238181,20.536302 L9.5238181,19.0150945 L9.5238181,19.0150945 Z M10.6714382,20.536302 C15.4190615,20.305744 18.6357311,16.2911822 18.6357311,10.5795232 C18.6357311,4.9011406 15.5595378,1.05533774 10.6714382,0.653643872 L10.6714382,2.17247454 C11.5928676,2.43155521 11.9666774,3.06143021 11.9666774,4.52796937 L11.9666774,17.0660473 C11.9666774,18.1808072 11.621439,18.6989685 10.6714382,19.0150945 L10.6714382,20.536302 L10.6714382,20.536302 Z" id="path2626"></path>
                            </g>
                            <g id="g2628" transform="translate(129.947974, 1.274249)">
                                <path d="M7.14286357,2.37688681 C5.82143381,2.60506794 5.04524264,2.8641486 4.26905146,3.40845568 C3.06428847,4.24036607 2.34285925,5.50249296 2.34285925,6.7931425 C2.34285925,8.57343072 3.66428901,9.95202507 5.33333813,9.95202507 C6.85714903,9.95202507 8.11905493,8.68752129 8.11905493,7.16869062 C8.11905493,6.04917693 7.54762584,5.24578919 6.3666724,4.64205994 C6.22381513,4.55649201 6.10952931,4.4685472 6.10952931,4.44002456 C6.10952931,4.26888871 6.54048208,4.04070757 7.14286357,3.92424012 L7.14286357,2.37688681 L7.14286357,2.37688681 Z M8.35000751,3.92424012 C9.06905578,4.24036607 9.32857982,4.75852739 9.32857982,5.87566419 L9.32857982,19.1315619 C9.32857982,19.9325728 9.24048451,20.0205176 8.29048365,20.2486987 C7.83095943,20.3651662 7.60238779,20.6242468 7.60238779,20.9974181 C7.60238779,21.3682124 7.89048329,21.6843384 8.26429315,21.7413836 C8.49286479,21.7699063 8.5238172,21.7699063 9.32857982,21.7984289 L15.5928712,21.7984289 C16.7166817,21.7984289 17.0309677,21.6272931 17.0309677,21.0235638 C17.0309677,20.6812921 16.8285866,20.4222115 16.4571577,20.305744 C15.6809665,20.0514171 15.5928712,19.9634723 15.5928712,19.2456525 L15.5928712,7.53948496 C15.5928712,4.21184343 13.2357262,2.25804247 9.27143692,2.25804247 C9.01191287,2.25804247 8.78334124,2.25804247 8.35000751,2.288942 L8.35000751,3.92424012 L8.35000751,3.92424012 Z" id="path2630"></path>
                            </g>
                            <g id="g2632" transform="translate(147.082037, 3.936838)">
                                <path d="M9.5238181,0 L3.25714579,0 C2.62619284,0 2.59762139,0 2.36428784,0.0570452834 C2.02381135,0.144990095 1.82143021,0.401693871 1.82143021,0.7748651 C1.82143021,1.11951369 2.02381135,1.37859435 2.39762121,1.49030803 C3.17381238,1.74938869 3.25714579,1.83495662 3.25714579,2.55515332 L3.25714579,16.5835393 C3.25714579,17.3013591 3.17381238,17.386927 2.39762121,17.6436308 C2.02381135,17.7600982 1.82143021,18.0191789 1.82143021,18.3614506 C1.82143021,18.7346218 2.02381135,18.9937025 2.36428784,19.0792704 C2.59762139,19.1363157 2.62619284,19.1363157 3.25714579,19.1363157 L9.5238181,19.1363157 L9.5238181,0 L9.5238181,0 Z M16.3904909,19.1363157 L16.3904909,14.1448534 C16.3904909,13.5720237 16.1904908,13.312943 15.7023951,13.312943 C15.2714423,13.312943 15.1262041,13.4246567 14.9547754,13.942818 C14.2357271,16.1533228 12.828583,17.3013591 10.7023906,17.4724949 L10.7023906,19.1363157 L16.3904909,19.1363157 L16.3904909,19.1363157 Z M10.7023906,10.5581312 C11.7381058,11.0168704 12.252392,11.6467454 12.4500112,12.6260227 C12.6285828,13.3390888 12.828583,13.5720237 13.2857262,13.5720237 C13.8357267,13.5720237 13.9762031,13.312943 13.9762031,12.3930878 L13.9762031,7.05935382 C13.9762031,6.19654391 13.8047743,5.91131749 13.2857262,5.91131749 C12.8857259,5.91131749 12.6547733,6.13949863 12.5095351,6.77175052 C12.1952491,8.00535477 11.5904866,8.75169723 10.7023906,8.92283308 L10.7023906,10.5581312 L10.7023906,10.5581312 Z M10.7023906,1.52120756 C12.7666782,1.72086605 14.4381082,3.12798304 15.1000136,5.19349768 C15.2976328,5.79485004 15.5000139,5.96836278 15.8738238,5.96836278 C16.4190624,5.96836278 16.5928721,5.70928211 16.5928721,4.93441701 L16.5928721,0 L10.7023906,0 L10.7023906,1.52120756 L10.7023906,1.52120756 Z" id="path2634"></path>
                            </g>
                            <g id="g2636" transform="translate(163.978957, 2.738887)">
                                <path d="M9.5238181,19.0150945 C8.43095997,18.8415817 7.91429284,18.038194 7.91429284,16.5764086 L7.91429284,4.98433164 C7.91429284,3.92186323 7.97619765,3.66515946 8.31667415,3.17789766 C8.63096015,2.74768115 8.9214366,2.57416841 9.5238181,2.54564577 L9.5238181,0.824779723 C4.31905151,0.941247176 1.21904872,4.55411513 1.21904872,10.43691 C1.21904872,14.1092001 2.42857361,17.0042482 4.69524232,18.9010039 C6.19048176,20.1060855 7.77143557,20.6789152 9.5238181,20.7074379 L9.5238181,19.0150945 L9.5238181,19.0150945 Z M10.6452477,20.6789152 C11.5095342,20.5624478 11.8262011,20.4768799 13.2904882,19.9325728 C13.8357267,19.7329143 14.0666793,19.6734921 14.2666795,19.6734921 C14.5833465,19.6734921 14.7285847,19.7899596 15.0428707,20.3936888 C15.1547755,20.5624478 15.3881091,20.7074379 15.6738236,20.7074379 C16.1595384,20.7074379 16.4500148,20.3936888 16.4500148,19.8161053 L16.4500148,13.9951095 C16.4500148,13.3319581 16.1333479,12.9326411 15.6166807,12.9326411 C15.1881089,12.9326411 14.9285849,13.2202444 14.7547752,13.8501194 C14.0952508,16.6643534 12.3690588,18.8415817 10.6452477,19.0150945 L10.6452477,20.6789152 L10.6452477,20.6789152 Z M10.6738191,2.54564577 C12.6857257,2.74768115 14.295251,4.06923022 14.871442,5.93033259 C15.0714421,6.53406184 15.2714423,6.76224297 15.704776,6.76224297 C16.1333479,6.76224297 16.4762053,6.38907174 16.4762053,5.90418683 C16.4762053,4.92728635 15.6166807,3.46550097 14.4666797,2.40303256 C13.2904882,1.34056416 12.1642967,0.881825006 10.6738191,0.824779723 L10.6738191,2.54564577 L10.6738191,2.54564577 Z" id="path2638"></path>
                            </g>
                            <g id="g2640" transform="translate(181.040877, 3.581974)">
                                <path d="M4.76190905,19.4904661 L4.76190905,17.7696001 C3.72381288,17.2538156 3.09524088,15.9631661 2.77857393,13.6670934 C2.69524052,13.1204095 2.37857357,12.7781378 1.91904935,12.7781378 C1.42857271,12.7781378 1.08333431,13.151309 1.08333431,13.6956161 L1.08333431,19.4904661 L4.76190905,19.4904661 L4.76190905,19.4904661 Z M12.1762014,3.02339432 C12.1762014,2.24852922 12.2904873,2.10591601 13.2404881,1.87535799 C13.6714409,1.78979006 13.9000125,1.5307094 13.9000125,1.15753817 C13.9000125,0.784366942 13.611917,0.468240997 13.2404881,0.411195713 C13.0119165,0.35415043 12.9809641,0.35415043 12.2071538,0.35415043 L5.91191008,0.35415043 C5.10714745,0.35415043 5.078576,0.35415043 4.85000436,0.411195713 C4.4761945,0.468240997 4.18571805,0.784366942 4.18571805,1.15753817 C4.18571805,1.5307094 4.41667064,1.78979006 4.85000436,1.87535799 C5.79762427,2.10591601 5.91191008,2.22000657 5.91191008,3.02339432 L5.91191008,19.4904661 L12.1762014,19.4904661 L12.1762014,3.02339432 L12.1762014,3.02339432 Z M17.0071582,13.6956161 C17.0071582,13.151309 16.6571578,12.7781378 16.1714431,12.7781378 C15.7976333,12.7781378 15.5142997,13.0063189 15.3690615,13.4365354 C15.3357281,13.4983345 15.2523947,13.8691288 15.1642994,14.5275265 C14.8214419,16.2198699 14.2190604,17.3393836 13.3262025,17.7696001 L13.3262025,19.4904661 L17.0071582,19.4904661 L17.0071582,13.6956161 L17.0071582,13.6956161 Z" id="path2642"></path>
                            </g>
                        </g>
                    </g>
                </g>
            </g>
        </g>
    </g>
</svg>